<?xml version="1.0" encoding="UTF-8"?>
<svg version="1.1" viewBox="0 0 2000 2000" xmlns="http://www.w3.org/2000/svg">
 <path d="m1038.8 50.401c-73.3 59.153-17.404 59.044-123.54 186.93-49.535-34.772-95.443-76.194-114.17-167.46-8.677 69.04-35.698 147.25-25.246 206.73-42.174-7.2439-57.266 12.593-141.48-36.688 27.192 36.376 42.803 77.385 93.852 104.22-37.309 15.939-59.459 20.733-93.051 42.256-91.667-64.881-201.53-215.07-262.44-255.29-130.08-47.789-251.07 106.89-251.07 238.58s112.48 238.58 251.07 238.58c13.962 0 27.559-1.4194 40.902-3.505-68.598 104.35-88.828 229.48-88.828 361.5 0 65.982 2.3213 117.99-6.5504 197.87-64.734 75.148-86.096 151.61-86.096 243.38 0 290.58 369.28 526.47 824.26 526.47s824.26-235.89 824.26-526.47c0-115.7-41.103-216.77-140.29-303.69-6.5464-43.228-13.491-93.769-13.491-139.52 0-123.2-24.96-238.67-85.316-338.36 0.4699 2e-3 0.9227 0.0778 1.3933 0.0778 138.58 0 251.07-106.89 251.07-238.58s-112.48-238.5-251.07-238.51c-96.564 20.193-157.47 149.73-250.82 233.91-55.384-32.007-100.15-51.053-164.05-67.905l-66.748-29.462c-9.2945-39.334 28.995-78.669 81.779-118-48.505 3.5421-120.66 26.002-194.75 50.018-36.015-48.404-18.272-108.75-9.5863-167.09z" fill="#803300"/>
 <path d="m1857.3 1402.2c0 281.58-367.42 514.96-807.58 514.96s-795.42-230.48-795.42-512.08c18.269-364.21 324.69-316.05 765.36-316.24 440.16-0.1943 806.09-120.81 837.64 313.34z" fill="#ffb380" stroke-width="2.5569"/>
 <path d="m1335.2 668.16a172.08 198.42 0 1 1 0 396.84 172.08 198.42 0 1 1 0 -396.84z" fill="#fff"/>
 <path d="m1321.4 967.18a50.928 72.372 0 1 1 0 -144.74 50.928 72.372 0 1 1 0 144.74z" fill="#241c1c" stroke="#241c1c" stroke-linejoin="round" stroke-width="48.58"/>
 <path d="m1563.3 676.66c-68.161-78.221-128.88-118.27-221.78-129.77 7.6018-20.508 91.548-9.7251 140.52 18.928s88.858 90.332 81.256 110.84z" fill="#520"/>
 <path d="m1392.5 913.27a49.351 14.352 0 1 1 0 -28.704 49.351 14.352 0 1 1 0 28.704z" fill="#fff" stroke="#fff" stroke-linejoin="round" stroke-width="21.296"/>
 <path d="m660.15 685.68a172.08 198.42 0 1 1 0 396.84 172.08 198.42 0 1 1 0 -396.84z" fill="#fff"/>
 <path d="m687.81 981.93a50.928 72.372 0 1 1 0 -144.74 50.928 72.372 0 1 1 0 144.74z" fill="#241c1c" stroke="#241c1c" stroke-linejoin="round" stroke-width="48.58"/>
 <path d="m761.12 927.97a49.335 14.353 0 1 1 0 -28.706 49.335 14.353 0 1 1 0 28.706z" fill="#fff" stroke="#fff" stroke-linejoin="round" stroke-width="21.294"/>
 <path d="m1350.5 1167.2c0.056 94.449-151.96 229.04-339.51 229.04s-339.57-134.59-339.51-229.04c-0.0557-94.449 151.96-171.03 339.51-171.03s339.57 76.581 339.51 171.03z" fill="#520"/>
 <path d="m450.15 687.38c66.338-78.221 125.43-118.27 215.84-129.77-7.3985-20.508-89.1-9.7251-136.76 18.928-47.657 28.653-86.482 90.332-79.083 110.84z" fill="#520"/>
 <g stroke="#520">
  <g fill="none" stroke="#520" stroke-linecap="round" stroke-linejoin="round" stroke-width="25">
   <path d="m1016.5 1388.3 4.1432 108.98s7.1919 77.374-158.05 85.389c-107.29 5.204-159.86-83.367-159.86-83.367"/>
   <path d="m1020.6 1497.3s38.67 87.007 175.4 75.959c157.77-12.749 147.77-88.388 147.77-88.388"/>
  </g>
 </g>
 <path d="m1350.5 1167.2c0.056 94.449-151.96 229.04-339.51 229.04s-339.57-134.59-339.51-229.04c-0.0557-94.449 151.96-171.03 339.51-171.03s339.57 76.581 339.51 171.03z" fill="#520"/>
</svg>
